# xmcd CD database file
#
# Track frame offsets:
#	150
#	27138
#	59668
#	93537
#	117094
#	131632
#	168328
#	191450
#
# Disc length: 3048 seconds
#
# Revision: 0
# Processed by: cddbd v1.5.2PL0 Copyright (c) Steve Scherf et al.
# Submitted via: CDex 1.51
#
DISCID=680be608
DTITLE=Dan Gibson - H2O
DYEAR=1900
DGENRE=New Age
TTITLE0=Origins
TTITLE1=The Liquid Path
TTITLE2=Equilibrium
TTITLE3=Refresh The Earth
TTITLE4=Rising Mist
TTITLE5=Silver Lake
TTITLE6=The Mermaid's Realm
TTITLE7=Eternal Blue
EXTD=
EXTT0=
EXTT1=
EXTT2=
EXTT3=
EXTT4=
EXTT5=
EXTT6=
EXTT7=
PLAYORDER=
